<svg width="100" height="100" viewBox="0 0 100 100" fill="none" xmlns="http://www.w3.org/2000/svg">
<path d="M56.0547 0C54.4367 0 53.125 1.31172 53.125 2.92969V44.1406C53.125 45.7586 54.4367 47.0703 56.0547 47.0703H97.0703C98.6883 47.0703 100 45.7586 100 44.1406C100 19.8975 80.3268 0 56.0547 0ZM58.9844 41.2109V5.97148C77.6594 7.40605 92.6102 22.4381 94.0303 41.2109H58.9844Z" fill="white"/>
<path d="M61.4828 93.4365L47.2656 55.3307V14.8438C47.2656 13.2258 45.9539 11.9141 44.3359 11.9141C20.2102 11.9141 0 31.474 0 55.8594C0 80.0623 20.0143 100 44.3359 100C49.6437 100 54.8365 99.059 59.7697 97.2027C61.2811 96.6342 62.0475 94.9496 61.4828 93.4365ZM44.3359 94.1406C23.1199 94.1406 5.85938 76.9678 5.85938 55.8594C5.85938 35.8342 21.5535 19.3689 41.4062 17.8828V55.8594C41.4062 56.209 41.4688 56.5559 41.591 56.8836L54.9326 92.642C51.5037 93.6375 47.9516 94.1406 44.3359 94.1406Z" fill="white"/>
<path d="M97.0702 52.9297H56.0546C55.0946 52.9297 54.1954 53.4 53.6481 54.1887C53.1005 54.9773 52.9743 55.984 53.3099 56.8836L67.712 95.485C68.2808 97.0088 69.9778 97.7713 71.4886 97.2027C88.5421 90.7869 99.9999 74.1723 99.9999 55.8594C99.9999 54.2414 98.6882 52.9297 97.0702 52.9297ZM72.1343 90.5762L60.2745 58.7695H94.0274C92.9681 72.4975 84.5331 84.7639 72.1343 90.5762Z" fill="white"/>
</svg>
