<svg width="24" height="24" viewBox="0 0 24 24" fill="none" xmlns="http://www.w3.org/2000/svg">
<g clip-path="url(#clip0_0_3588)">
<path d="M13.1588 1.24445L15.8656 6.72931C16.0539 7.11078 16.4178 7.37511 16.8389 7.43619L22.8919 8.31579C23.9523 8.46998 24.3753 9.77261 23.6083 10.52L19.2283 14.7894C18.924 15.0863 18.7848 15.5143 18.8569 15.9333L19.8907 21.9618C20.0719 23.0177 18.9635 23.8227 18.0153 23.3245L12.6016 20.4785C12.2251 20.2807 11.775 20.2807 11.3986 20.4785L5.9848 23.3245C5.03661 23.8232 3.92823 23.0177 4.10945 21.9618L5.14325 15.9333C5.21534 15.5143 5.07616 15.0863 4.77178 14.7894L0.391807 10.52C-0.375152 9.77211 0.047877 8.46948 1.1082 8.31579L7.16127 7.43619C7.58229 7.37511 7.94625 7.11078 8.13448 6.72931L10.8414 1.24445C11.315 0.283751 12.6847 0.283751 13.1588 1.24445Z" fill="#474BFF"/>
</g>
<defs>
<clipPath id="clip0_0_3588">
<rect width="24" height="24" fill="white"/>
</clipPath>
</defs>
</svg>
