<svg width="23" height="22" viewBox="0 0 23 22" fill="none" xmlns="http://www.w3.org/2000/svg">
<path d="M18.2832 1.97656H4.7168C2.11589 1.97656 0 4.00046 0 6.48828V13.4566C0 15.4417 1.36257 17.1707 3.33703 17.7241L5.61506 19.9033C5.74158 20.0241 5.91284 20.0921 6.09165 20.0921C6.27029 20.0921 6.44173 20.0241 6.56807 19.9033L8.65781 17.9042H18.2832C20.8841 17.9042 23 15.8803 23 13.3925V6.48828C23 4.00046 20.8841 1.97656 18.2832 1.97656ZM21.6523 13.3925C21.6523 15.1695 20.141 16.6151 18.2832 16.6151H8.37881C8.20017 16.6151 8.02873 16.6831 7.90239 16.804L6.09165 18.536L4.16317 16.6913C4.07666 16.6086 3.96822 16.5499 3.84942 16.5217C2.37647 16.171 1.34766 14.9107 1.34766 13.4566V6.48828C1.34766 4.71129 2.85903 3.26562 4.7168 3.26562H18.2832C20.141 3.26562 21.6523 4.71129 21.6523 6.48828V13.3925Z" fill="#474BFF"/>
<path d="M15.7786 8.15674H7.22171C6.84953 8.15674 6.54788 8.44543 6.54788 8.80127C6.54788 9.15727 6.84953 9.4458 7.22171 9.4458H15.7786C16.1508 9.4458 16.4525 9.15727 16.4525 8.80127C16.4525 8.44543 16.1508 8.15674 15.7786 8.15674Z" fill="#474BFF"/>
<path d="M15.7786 10.4355H7.22171C6.84953 10.4355 6.54788 10.7241 6.54788 11.0801C6.54788 11.4361 6.84953 11.7246 7.22171 11.7246H15.7786C16.1508 11.7246 16.4525 11.4361 16.4525 11.0801C16.4525 10.7241 16.1508 10.4355 15.7786 10.4355Z" fill="#474BFF"/>
</svg>
