<svg width="87" height="100" viewBox="0 0 87 100" fill="none" xmlns="http://www.w3.org/2000/svg">
<path d="M84.5703 42.7324C85.649 42.7324 86.5234 41.858 86.5234 40.7793C86.5234 39.7006 85.649 38.8262 84.5703 38.8262H77.1715V33.5088H84.5703C85.649 33.5088 86.5234 32.6344 86.5234 31.5557C86.5234 30.477 85.649 29.6025 84.5703 29.6025H77.1715V26.407C77.1715 25.8893 76.966 25.3928 76.6 25.0266L70.9521 19.374C70.5859 19.0074 70.0889 18.8014 69.5705 18.8014H66.3742V11.4092C66.3742 10.3305 65.4998 9.45605 64.4211 9.45605C63.3424 9.45605 62.468 10.3305 62.468 11.4092V18.8014H57.1496V11.4092C57.1496 10.3305 56.2752 9.45605 55.1965 9.45605C54.1178 9.45605 53.2434 10.3305 53.2434 11.4092V18.8014H47.9305V11.8021C47.9305 5.29434 42.6355 0 36.127 0C30.802 0 26.174 3.59922 24.7625 8.59941C20.7035 9.01191 16.9428 10.8064 14.0406 13.7445C10.7633 17.0629 8.9584 21.4596 8.9584 26.1246C8.9584 28.4396 9.41543 30.7326 10.2918 32.8582C7.5502 34.315 5.19785 36.4102 3.41465 38.9994C1.18086 42.2432 0 46.0461 0 49.9973C0 57.2709 3.97695 63.7949 10.2908 67.1418C9.41543 69.2635 8.95879 71.5545 8.95879 73.8699C8.95879 78.535 10.7637 82.9316 14.041 86.25C16.943 89.1881 20.7037 90.9826 24.7627 91.3951C26.174 96.3986 30.8023 100 36.1273 100C42.6357 100 47.9309 94.7057 47.9309 88.1979V81.1932H53.2438V88.5908C53.2438 89.6695 54.1182 90.5439 55.1969 90.5439C56.2756 90.5439 57.15 89.6695 57.15 88.5908V81.1932H62.4684V88.5908C62.4684 89.6695 63.3428 90.5439 64.4215 90.5439C65.5002 90.5439 66.3746 89.6695 66.3746 88.5908V81.1932H69.5709C70.0889 81.1932 70.5855 80.9875 70.952 80.6211L76.5998 74.974C76.966 74.6078 77.1719 74.1109 77.1719 73.593V70.3918H84.5703C85.649 70.3918 86.5234 69.5174 86.5234 68.4387C86.5234 67.36 85.649 66.4855 84.5703 66.4855H77.1715V61.1738H84.5703C85.649 61.1738 86.5234 60.2994 86.5234 59.2207C86.5234 58.142 85.649 57.2676 84.5703 57.2676H77.1715V51.9504H84.5703C85.649 51.9504 86.5234 51.076 86.5234 49.9973C86.5234 48.9186 85.649 48.0441 84.5703 48.0441H77.1715V42.7324H84.5703ZM36.1273 96.0938C32.8873 96.0938 30.0348 94.1014 28.8338 91.2242C30.2584 90.9691 31.6475 90.5357 32.9832 89.9229C34.9244 89.0316 36.6605 87.8119 38.1432 86.2975C38.8977 85.5266 38.8846 84.29 38.1139 83.5353C37.343 82.7809 36.1066 82.7939 35.3518 83.5647C34.2043 84.7365 32.8592 85.6813 31.3539 86.3723C29.7633 87.102 28.0773 87.5064 26.3424 87.5768C18.9064 87.4541 12.865 81.3158 12.865 73.8693C12.865 71.5164 13.4695 69.198 14.6131 67.1645C14.8889 66.6744 14.9398 66.0893 14.7531 65.559C14.5666 65.0285 14.1604 64.6043 13.6387 64.3947C7.72656 62.0203 3.90625 56.3687 3.90625 49.9973C3.90625 43.624 7.72598 37.9748 13.6375 35.6055C14.7988 34.9775 15.1244 34.0545 14.6143 32.8369C13.4699 30.7975 12.865 28.4764 12.865 26.1248C12.865 18.6783 18.9064 12.54 26.3424 12.4174C28.0664 12.4875 29.7537 12.8924 31.3535 13.6217C32.8615 14.3139 34.2057 15.2594 35.3488 16.432C35.7316 16.8246 36.2395 17.0219 36.7477 17.0219C37.2391 17.0219 37.7311 16.8375 38.1107 16.4674C38.8832 15.7145 38.8988 14.4777 38.1459 13.7055C36.6662 12.1877 34.9291 10.965 32.9783 10.0695C31.6385 9.45879 30.2514 9.02637 28.8336 8.77148C30.0346 5.89668 32.8871 3.90625 36.1273 3.90625C40.4818 3.90625 44.0246 7.44844 44.0246 11.8021V35.748H37.9441L32.7623 30.5668C33.3139 29.56 33.608 28.4256 33.608 27.2457C33.608 25.3949 32.8873 23.6549 31.5781 22.3461C28.8766 19.6449 24.4805 19.6447 21.7787 22.3461C20.4699 23.6549 19.749 25.3949 19.749 27.2455C19.749 29.0961 20.4697 30.8361 21.7787 32.1449C23.1295 33.4955 24.9039 34.1709 26.6783 34.1709C27.8229 34.1709 28.9666 33.8881 29.9977 33.3262L35.7539 39.0818C36.1705 39.4547 36.6309 39.6455 37.135 39.6539H44.0244V48.0437H31.7848C30.9387 45.1738 28.2793 43.0721 25.1365 43.0721C21.3178 43.0721 18.2111 46.1785 18.2111 49.9969C18.2111 53.8182 21.3178 56.9272 25.1365 56.9272C28.2799 56.9272 30.9396 54.823 31.7852 51.95H44.0244V60.3398H37.135C37.0826 60.3398 37.0377 60.3426 36.9963 60.3465C36.5436 60.3785 36.0996 60.566 35.7533 60.9123L29.9969 66.6727C27.368 65.24 24.0004 65.6328 21.7785 67.8543C20.4684 69.1645 19.7477 70.9059 19.7488 72.758C19.75 74.6074 20.4717 76.3447 21.7785 77.6479C23.1297 78.9988 24.9043 79.674 26.6789 79.674C28.4527 79.674 30.2266 78.999 31.576 77.6498C32.8848 76.3447 33.6064 74.6076 33.6076 72.7582C33.6084 71.5766 33.3141 70.4406 32.7615 69.4324L37.9441 64.2463H44.024V88.1977C44.0244 92.5516 40.4818 96.0938 36.1273 96.0938ZM29.7018 27.2459C29.7018 28.0531 29.3873 28.8121 28.8164 29.383C27.6375 30.5617 25.7197 30.5617 24.5408 29.383C23.9699 28.8121 23.6555 28.0531 23.6555 27.2459C23.6555 26.4387 23.9699 25.6795 24.5408 25.1088C25.7197 23.9303 27.6377 23.9303 28.8164 25.1088C29.3873 25.6795 29.7018 26.4385 29.7018 27.2459ZM28.1611 49.9973C28.1611 51.6646 26.8043 53.0213 25.1365 53.0213C23.4719 53.0213 22.1174 51.6646 22.1174 49.9973C22.1174 48.333 23.4719 46.9787 25.1365 46.9787C26.8043 46.9787 28.1611 48.3328 28.1611 49.9973ZM29.7018 72.7557C29.7012 73.5605 29.3875 74.3164 28.8164 74.8857C27.6375 76.0643 25.7195 76.0645 24.5389 74.8838C23.9697 74.3164 23.6559 73.5605 23.6555 72.7557C23.6549 71.948 23.9693 71.1885 24.5408 70.617C25.7195 69.4387 27.6375 69.4385 28.816 70.6168C28.8162 70.617 28.8164 70.6172 28.8166 70.6176L28.8168 70.6178C29.3881 71.1893 29.7023 71.9484 29.7018 72.7557ZM73.2652 72.7838L68.7617 77.2869H47.9307V71.499H65.523C66.6018 71.499 67.4762 70.6246 67.4762 69.5459V58.7611C67.4762 57.6824 66.6018 56.808 65.523 56.808C64.4443 56.808 63.5699 57.6824 63.5699 58.7611V67.5928H47.9307V32.4072H63.5699V41.2166C63.5699 42.2953 64.4443 43.1697 65.523 43.1697C66.6018 43.1697 67.4762 42.2953 67.4762 41.2166V30.4541C67.4762 29.3754 66.6018 28.501 65.523 28.501H47.9307V22.7076H68.7611L73.2652 27.2156V72.7838Z" fill="white"/>
<path d="M65.5231 48.0385C64.4444 48.0385 63.57 48.9129 63.57 49.9916V49.9971C63.57 51.0758 64.4444 51.9475 65.5231 51.9475C66.6018 51.9475 67.4763 51.0703 67.4763 49.9916C67.4763 48.9129 66.6016 48.0385 65.5231 48.0385Z" fill="white"/>
</svg>
