<svg width="100" height="100" viewBox="0 0 100 100" fill="none" xmlns="http://www.w3.org/2000/svg">
<path d="M92.5 0H7.5C3.36504 0 0 3.36504 0 7.5V92.5C0 96.635 3.36504 100 7.5 100H92.5C96.635 100 100 96.635 100 92.5V7.5C100 3.36504 96.635 0 92.5 0ZM96.6666 92.5C96.6666 94.7982 94.7982 96.6666 92.5 96.6666H7.5C5.20332 96.6666 3.3334 94.7982 3.3334 92.5V7.5C3.3334 5.20156 5.20332 3.3334 7.5 3.3334H92.5C94.7967 3.3334 96.6666 5.20176 96.6666 7.5V92.5Z" fill="white"/>
<path d="M14.9998 6.66656H8.33317C7.41324 6.66656 6.66656 7.41149 6.66656 8.33317V15C6.66656 15.9216 7.41324 16.6666 8.33317 16.6666H14.9998C15.9197 16.6666 16.6664 15.9216 16.6664 15V8.33336C16.6664 7.41168 15.9197 6.66656 14.9998 6.66656ZM13.3332 13.3334H9.99977V9.99996H13.3332V13.3334Z" fill="white"/>
<path d="M28.3329 6.66656H21.6663C20.7463 6.66656 19.9997 7.41149 19.9997 8.33317V15C19.9997 15.9216 20.7463 16.6666 21.6663 16.6666H28.3329C29.2528 16.6666 29.9995 15.9216 29.9995 15V8.33336C29.9995 7.41168 29.2528 6.66656 28.3329 6.66656ZM26.6661 13.3334H23.3327V9.99996H26.6661V13.3334Z" fill="white"/>
<path d="M41.666 6.66656H34.9994C34.0794 6.66656 33.3328 7.41149 33.3328 8.33317V15C33.3328 15.9216 34.0794 16.6666 34.9994 16.6666H41.666C42.5859 16.6666 43.3326 15.9216 43.3326 15V8.33336C43.3328 7.41168 42.5861 6.66656 41.666 6.66656ZM39.9994 13.3334H36.666V9.99996H39.9994V13.3334Z" fill="white"/>
<path d="M92.5 0H7.5C3.36504 0 0 3.36504 0 7.5V21.6666C0 22.5883 0.74668 23.3332 1.6666 23.3332H98.3332C99.2531 23.3332 99.9998 22.5883 99.9998 21.6666V7.5C100 3.36504 96.635 0 92.5 0ZM96.6666 20H3.3334V7.5C3.3334 5.20156 5.20332 3.3334 7.5 3.3334H92.5C94.7967 3.3334 96.6666 5.20176 96.6666 7.5V20Z" fill="white"/>
<path d="M98.3334 56.6666H1.6666C0.74668 56.6666 0 57.4115 0 58.3332V92.1949C0 96.4982 3.50176 100 7.80332 100H92.1967C96.4982 100 100 96.4982 100 92.1949V58.3334C100 57.4117 99.2533 56.6666 98.3334 56.6666ZM96.6666 92.1949C96.6666 94.6615 94.6615 96.6666 92.1949 96.6666H7.80332C5.33828 96.6666 3.3334 94.6615 3.3334 92.1949V60H96.6668V92.1949H96.6666Z" fill="white"/>
<path d="M36.666 69.9997H9.99937C9.07944 69.9997 8.33276 70.7446 8.33276 71.6663C8.33276 72.5879 9.07944 73.3329 9.99937 73.3329H36.666C37.5859 73.3329 38.3326 72.5879 38.3326 71.6663C38.3326 70.7446 37.5861 69.9997 36.666 69.9997Z" fill="white"/>
<path d="M44.9994 76.6662H9.99937C9.07944 76.6662 8.33276 77.4111 8.33276 78.3328C8.33276 79.2545 9.07944 79.9994 9.99937 79.9994H44.9994C45.9193 79.9994 46.666 79.2545 46.666 78.3328C46.666 77.4113 45.9193 76.6662 44.9994 76.6662Z" fill="white"/>
<path d="M53.3328 83.3328H9.99937C9.07944 83.3328 8.33276 84.0777 8.33276 84.9994C8.33276 85.921 9.07944 86.666 9.99937 86.666H53.3328C54.2527 86.666 54.9994 85.921 54.9994 84.9994C54.9994 84.0777 54.2527 83.3328 53.3328 83.3328Z" fill="white"/>
<path d="M79.9994 33.3328H59.9994C59.0794 33.3328 58.3328 34.0777 58.3328 34.9994C58.3328 35.921 59.0794 36.666 59.9994 36.666H79.9994C80.9193 36.666 81.666 35.921 81.666 34.9994C81.666 34.0777 80.9193 33.3328 79.9994 33.3328Z" fill="white"/>
<path d="M84.9994 39.9993H59.9994C59.0794 39.9993 58.3328 40.7442 58.3328 41.6659C58.3328 42.5876 59.0794 43.3325 59.9994 43.3325H84.9994C85.9193 43.3325 86.666 42.5876 86.666 41.6659C86.666 40.7442 85.9193 39.9993 84.9994 39.9993Z" fill="white"/>
<path d="M89.9994 46.6659H59.9994C59.0794 46.6659 58.3328 47.4108 58.3328 48.3325C58.3328 49.2541 59.0794 49.9993 59.9994 49.9993H89.9994C90.9193 49.9993 91.666 49.2543 91.666 48.3327C91.666 47.411 90.9193 46.6659 89.9994 46.6659Z" fill="white"/>
<path d="M76.6669 63.3331C68.3952 63.3331 61.6669 70.0614 61.6669 78.3331C61.6669 86.6048 68.3952 93.3331 76.6669 93.3331C84.9386 93.3331 91.6669 86.6048 91.6669 78.3331C91.6669 70.0614 84.9386 63.3331 76.6669 63.3331ZM76.6669 89.9997C70.2335 89.9997 65.0003 84.7647 65.0003 78.3331C65.0003 71.9015 70.2337 66.6665 76.6669 66.6665C83.1003 66.6665 88.3335 71.9015 88.3335 78.3331C88.3337 84.7647 83.1003 89.9997 76.6669 89.9997Z" fill="white"/>
<path d="M18.3332 31.6666H8.33317C7.41324 31.6666 6.66656 32.4115 6.66656 33.3332V51.6666C6.66656 52.5882 7.41324 53.3332 8.33317 53.3332H18.3332C19.2531 53.3332 19.9998 52.5882 19.9998 51.6666V33.3332C19.9998 32.4117 19.2531 31.6666 18.3332 31.6666ZM16.6664 50H9.99977V35H16.6664V50Z" fill="white"/>
<path d="M35.0004 36.6669H25.0004C24.0805 36.6669 23.3338 37.4118 23.3338 38.3335V51.6669C23.3338 52.5885 24.0805 53.3335 25.0004 53.3335H35.0004C35.9203 53.3335 36.667 52.5885 36.667 51.6669V38.3335C36.667 37.412 35.9203 36.6669 35.0004 36.6669ZM33.3338 50.0003H26.6672V40.0003H33.3338V50.0003Z" fill="white"/>
<path d="M51.6659 26.6662H41.6659C40.746 26.6662 39.9993 27.4111 39.9993 28.3328V51.6662C39.9993 52.5879 40.746 53.3328 41.6659 53.3328H51.6659C52.5858 53.3328 53.3325 52.5879 53.3325 51.6662V28.333C53.3327 27.4113 52.586 26.6662 51.6659 26.6662ZM49.9993 49.9996H43.3327V29.9996H49.9993V49.9996Z" fill="white"/>
</svg>
