<svg width="100" height="66" viewBox="0 0 100 66" fill="none" xmlns="http://www.w3.org/2000/svg">
<path d="M99.9463 45.5825C99.6972 39.853 98.7008 33.5007 97.2061 27.5221C95.7115 21.7926 93.8431 16.4368 91.6012 12.3265C82.8824 -2.99371 73.4162 -0.627175 62.0818 2.36213C58.4697 3.23401 54.6085 4.23044 50.6228 4.60411H49.3773C45.3915 4.23044 41.5303 3.23401 37.9183 2.36213C26.5838 -0.50262 17.1177 -2.99371 8.39889 12.451C6.15691 16.5613 4.16404 21.9172 2.79394 27.6467C1.29929 33.6253 0.302858 39.9775 0.0537492 45.707C-0.195359 52.0593 0.427412 56.6678 1.79751 59.9062C3.16761 62.8955 5.16048 64.7638 7.77612 65.5112C10.1426 66.1339 12.8828 65.8848 15.7476 64.6393C20.6052 62.6464 26.2102 58.4116 31.6905 53.3049C35.5517 49.5682 42.7759 47.6999 50 47.6999C57.2242 47.6999 64.4483 49.5682 68.3095 53.3049C73.7899 58.4116 79.3948 62.6464 84.2525 64.6393C87.1172 65.7603 89.8574 66.1339 92.2239 65.5112C94.715 64.7638 96.8324 63.0201 98.2025 59.7817C99.5726 56.6678 100.195 52.0593 99.9463 45.5825ZM93.9677 58.0379C93.2204 59.7817 92.2239 60.7781 90.9784 61.1518C89.6083 61.5254 87.8645 61.2763 85.8717 60.529C81.5123 58.7852 76.4055 54.9241 71.4234 50.191C66.6903 45.4579 58.3452 43.0914 50 43.0914C41.6549 43.0914 33.3097 45.4579 28.4521 49.9419C23.3454 54.675 18.2387 58.6607 14.0038 60.2799C12.011 61.0272 10.2672 61.4009 8.89711 60.9027C7.65156 60.529 6.65513 59.5326 5.9078 57.7888C4.91137 55.4223 4.41315 51.5611 4.66226 45.8316C4.91137 40.4758 5.78325 34.3726 7.2779 28.6431C8.648 23.2873 10.3918 18.3051 12.5092 14.5685C19.3597 2.23757 27.3311 4.23044 36.7973 6.72153C40.6585 7.71797 44.6442 8.7144 49.0036 9.08806C49.1282 9.08806 49.1282 9.08806 49.2527 9.08806H50.6228C50.7474 9.08806 50.7474 9.08806 50.8719 9.08806C55.3559 8.7144 59.3416 7.71797 63.2028 6.72153C72.6689 4.355 80.6404 2.23757 87.4909 14.5685C89.6083 18.3051 91.3521 23.1627 92.7222 28.6431C94.0923 34.3726 95.0887 40.3512 95.3378 45.8316C95.5869 51.5611 95.0887 55.4223 93.9677 58.0379Z" fill="#474BFF"/>
<path d="M38.541 21.295C37.2955 20.174 35.8008 19.3021 34.057 19.1776C33.9325 17.5583 33.1852 15.9391 32.0642 14.8181L31.9396 14.6936C30.5695 13.3235 28.8258 12.5762 26.8329 12.5762C24.84 12.5762 22.9717 13.4481 21.7262 14.6936C20.6052 15.8146 19.7333 17.4338 19.6087 19.1776C17.865 19.3021 16.3703 20.0494 15.1248 21.1704L15.0002 21.295C13.6301 22.6651 12.8828 24.4088 12.8828 26.4017C12.8828 28.3946 13.7547 30.2629 15.0002 31.5084C16.2458 32.754 17.7404 33.5013 19.6087 33.6259C19.7333 35.3696 20.4806 36.9888 21.7262 38.1098C23.0963 39.4799 24.84 40.2272 26.8329 40.2272C28.8258 40.2272 30.6941 39.3554 31.9396 38.1098C33.0606 36.8643 33.9325 35.3696 34.057 33.6259C35.8008 33.5013 37.42 32.754 38.541 31.5084C39.9111 30.1383 40.6584 28.3946 40.6584 26.4017C40.6584 24.4088 39.7865 22.5405 38.541 21.295ZM35.4271 28.27C34.9289 28.7682 34.3062 29.0173 33.5588 29.0173H31.8151C30.5695 29.0173 29.4485 30.0138 29.4485 31.3839V33.0031C29.4485 33.7504 29.1994 34.3732 28.7012 34.8714C28.203 35.3696 27.5802 35.6187 26.8329 35.6187C26.0856 35.6187 25.4628 35.3696 24.9646 34.8714C24.4664 34.3732 24.2173 33.7504 24.2173 33.0031V31.2593C24.2173 30.0138 23.2208 28.8928 21.8507 28.8928H20.107C19.3596 28.8928 18.7369 28.6437 18.2386 28.1455C17.865 27.7718 17.4913 27.149 17.4913 26.4017C17.4913 25.6544 17.7404 25.0316 18.2386 24.5334C18.2386 24.5334 18.2386 24.5334 18.3632 24.4088C18.8614 24.0352 19.4842 23.7861 20.107 23.7861H21.8507C23.0963 23.7861 24.2173 22.7896 24.2173 21.4195V19.6758C24.2173 18.9284 24.4664 18.3057 24.9646 17.8075C25.4628 17.3092 26.0856 17.0601 26.8329 17.0601C27.5802 17.0601 28.203 17.3092 28.7012 17.8075C28.7012 17.8075 28.7012 17.8075 28.8258 17.932C29.1994 18.4302 29.4485 19.053 29.4485 19.6758V21.4195C29.4485 22.6651 30.445 23.7861 31.8151 23.7861H33.5588C34.3062 23.7861 34.9289 24.0352 35.4271 24.5334C35.9254 25.0316 36.1745 25.6544 36.1745 26.4017C36.1745 27.149 35.9254 27.7718 35.4271 28.27Z" fill="#474BFF"/>
<path d="M71.6739 21.918C74.0815 21.918 76.0332 19.9663 76.0332 17.5586C76.0332 15.151 74.0815 13.1992 71.6739 13.1992C69.2662 13.1992 67.3145 15.151 67.3145 17.5586C67.3145 19.9663 69.2662 21.918 71.6739 21.918Z" fill="#474BFF"/>
<path d="M71.6739 39.6036C74.0815 39.6036 76.0332 37.6518 76.0332 35.2442C76.0332 32.8365 74.0815 30.8848 71.6739 30.8848C69.2662 30.8848 67.3145 32.8365 67.3145 35.2442C67.3145 37.6518 69.2662 39.6036 71.6739 39.6036Z" fill="#474BFF"/>
<path d="M62.8301 30.7618C65.2377 30.7618 67.1895 28.81 67.1895 26.4024C67.1895 23.9947 65.2377 22.043 62.8301 22.043C60.4225 22.043 58.4707 23.9947 58.4707 26.4024C58.4707 28.81 60.4225 30.7618 62.8301 30.7618Z" fill="#474BFF"/>
<path d="M80.5137 30.7618C82.9213 30.7618 84.8731 28.81 84.8731 26.4024C84.8731 23.9947 82.9213 22.043 80.5137 22.043C78.1061 22.043 76.1543 23.9947 76.1543 26.4024C76.1543 28.81 78.1061 30.7618 80.5137 30.7618Z" fill="#474BFF"/>
</svg>
