<svg width="22" height="22" viewBox="0 0 22 22" fill="none" xmlns="http://www.w3.org/2000/svg">
<path d="M19.2196 2.94214H2.78037C1.2473 2.94214 0 4.18944 0 5.72251V16.2767C0 17.8097 1.2473 19.057 2.78037 19.057H19.2196C20.7527 19.057 22 17.8097 22 16.2767V5.72251C22 4.18944 20.7527 2.94214 19.2196 2.94214ZM18.7853 4.73562L11 10.7496L3.21475 4.73562H18.7853ZM19.2196 17.2637H2.78037C2.23623 17.2637 1.79348 16.8209 1.79348 16.2768V5.90401L10.4518 12.5925C10.6132 12.7172 10.8067 12.7795 11 12.7795C11.1933 12.7795 11.3868 12.7172 11.5482 12.5925L20.2065 5.90401V16.2767C20.2065 16.8209 19.7638 17.2637 19.2196 17.2637Z" fill="#474BFF"/>
</svg>
