<svg width="22" height="22" viewBox="0 0 22 22" fill="none" xmlns="http://www.w3.org/2000/svg">
<g clip-path="url(#clip0_0_3681)">
<path d="M19.4791 20.1818H2.52089C1.13028 20.1818 0 19.0515 0 17.6609V6.20248C0 4.81187 1.13028 3.68176 2.52089 3.68176H8.02089C8.40039 3.68176 8.70839 3.98976 8.70839 4.36926C8.70839 4.74876 8.40039 5.05676 8.02089 5.05676H2.52089C1.88928 5.05676 1.375 5.57088 1.375 6.20248V17.6609C1.375 18.2925 1.88928 18.8068 2.52089 18.8068H19.4791C20.1107 18.8068 20.625 18.2925 20.625 17.6609V6.20248C20.625 5.57088 20.1107 5.05676 19.4791 5.05676H13.9791C13.5996 5.05676 13.2916 4.74876 13.2916 4.36926C13.2916 3.98976 13.5996 3.68176 13.9791 3.68176H19.4791C20.8697 3.68176 22 4.81187 22 6.20248V17.6609C22 19.0515 20.8697 20.1818 19.4791 20.1818Z" fill="#474BFF"/>
<path d="M13.0632 6.88927H8.93825C8.0537 6.88927 7.33414 6.16971 7.33414 5.28516V3.45177C7.33414 2.56721 8.0537 1.84766 8.93825 1.84766H13.0632C13.9478 1.84766 14.6674 2.56721 14.6674 3.45177V5.28516C14.6674 6.16971 13.9478 6.88927 13.0632 6.88927ZM8.93825 3.22266C8.81169 3.22266 8.70914 3.32538 8.70914 3.45177V5.28516C8.70914 5.41171 8.81169 5.51427 8.93825 5.51427H13.0632C13.1898 5.51427 13.2924 5.41171 13.2924 5.28516V3.45177C13.2924 3.32538 13.1898 3.22266 13.0632 3.22266H8.93825Z" fill="#474BFF"/>
<path d="M6.87575 12.8469C5.61253 12.8469 4.58414 11.8184 4.58414 10.5553C4.58414 9.29211 5.61253 8.26355 6.87575 8.26355C8.13896 8.26355 9.16736 9.29211 9.16736 10.5553C9.16736 11.8184 8.13896 12.8469 6.87575 12.8469ZM6.87575 9.63855C6.3707 9.63855 5.95914 10.0501 5.95914 10.5553C5.95914 11.0604 6.3707 11.4719 6.87575 11.4719C7.3808 11.4719 7.79236 11.0604 7.79236 10.5553C7.79236 10.0501 7.3808 9.63855 6.87575 9.63855Z" fill="#474BFF"/>
<path d="M10.3125 17.4303C9.933 17.4303 9.625 17.1223 9.625 16.7428V16.2844C9.625 15.6528 9.11072 15.1386 8.47911 15.1386H5.27089C4.63928 15.1386 4.125 15.6528 4.125 16.2844V16.7428C4.125 17.1223 3.817 17.4303 3.4375 17.4303C3.058 17.4303 2.75 17.1223 2.75 16.7428V16.2844C2.75 14.8938 3.88028 13.7635 5.27089 13.7635H8.47911C9.86972 13.7635 11 14.8938 11 16.2844V16.7428C11 17.1223 10.692 17.4303 10.3125 17.4303Z" fill="#474BFF"/>
<path d="M18.5632 10.0977H13.5216C13.1421 10.0977 12.8341 9.78966 12.8341 9.41016C12.8341 9.03065 13.1421 8.72266 13.5216 8.72266H18.5632C18.9427 8.72266 19.2507 9.03065 19.2507 9.41016C19.2507 9.78966 18.9427 10.0977 18.5632 10.0977Z" fill="#474BFF"/>
<path d="M18.5632 13.7635H13.5216C13.1421 13.7635 12.8341 13.4556 12.8341 13.076C12.8341 12.6965 13.1421 12.3885 13.5216 12.3885H18.5632C18.9427 12.3885 19.2507 12.6965 19.2507 13.076C19.2507 13.4556 18.9427 13.7635 18.5632 13.7635Z" fill="#474BFF"/>
<path d="M18.5632 17.4318H13.5216C13.1421 17.4318 12.8341 17.1238 12.8341 16.7443C12.8341 16.3648 13.1421 16.0568 13.5216 16.0568H18.5632C18.9427 16.0568 19.2507 16.3648 19.2507 16.7443C19.2507 17.1238 18.9427 17.4318 18.5632 17.4318Z" fill="#474BFF"/>
</g>
<defs>
<clipPath id="clip0_0_3681">
<rect width="22" height="22" fill="white"/>
</clipPath>
</defs>
</svg>
