<svg width="90" height="100" viewBox="0 0 90 100" fill="none" xmlns="http://www.w3.org/2000/svg">
<path d="M21.6691 23.3329C23.9766 23.3329 26.2322 22.6486 28.1508 21.3667C30.0694 20.0847 31.5648 18.2626 32.4478 16.1308C33.3308 13.999 33.5618 11.6532 33.1117 9.39006C32.6615 7.12693 31.5504 5.04812 29.9188 3.4165C28.2871 1.78488 26.2083 0.673731 23.9452 0.223568C21.6821 -0.226596 19.3363 0.00444465 17.2045 0.887472C15.0726 1.7705 13.2506 3.26585 11.9686 5.18444C10.6866 7.10302 10.0024 9.35866 10.0024 11.6661C10.0059 14.7592 11.2362 17.7247 13.4234 19.9118C15.6106 22.099 18.576 23.3293 21.6691 23.3329ZM21.6691 3.33275C23.3173 3.33275 24.9285 3.82149 26.2989 4.73717C27.6693 5.65286 28.7374 6.95435 29.3682 8.47708C29.9989 9.9998 30.1639 11.6754 29.8424 13.2919C29.5208 14.9084 28.7272 16.3933 27.5617 17.5587C26.3963 18.7242 24.9114 19.5178 23.2949 19.8394C21.6784 20.1609 20.0028 19.9959 18.4801 19.3652C16.9574 18.7344 15.6559 17.6663 14.7402 16.2959C13.8245 14.9255 13.3357 13.3143 13.3357 11.6661C13.3384 9.45679 14.2172 7.3387 15.7795 5.77646C17.3417 4.21422 19.4598 3.33539 21.6691 3.33275Z" fill="white"/>
<path d="M8.85672 19.5751L7.59171 20.2967C5.29031 21.6079 3.37616 23.5037 2.04302 25.7925C0.70989 28.0812 0.00509978 30.6815 0 33.3301V43.3302C0 44.6563 0.526787 45.9281 1.46447 46.8658C2.40216 47.8034 3.67394 48.3302 5.00003 48.3302H38.3336C39.6596 48.3302 40.9314 47.8034 41.8691 46.8658C42.8068 45.9281 43.3336 44.6563 43.3336 43.3302V33.3301C43.3285 30.6815 42.6237 28.0812 41.2906 25.7925C39.9574 23.5037 38.0433 21.6079 35.7419 20.2967L34.4769 19.5751L33.5919 20.7417C32.1974 22.5843 30.3949 24.0787 28.3259 25.1076C26.2569 26.1365 23.9775 26.672 21.6668 26.672C19.356 26.672 17.0767 26.1365 15.0077 25.1076C12.9386 24.0787 11.1362 22.5843 9.74172 20.7417L8.85672 19.5751ZM21.6668 29.9968C24.23 30.0042 26.7658 29.4691 29.1075 28.4267C31.4491 27.3842 33.5437 25.858 35.2535 23.9484C36.7223 25.033 37.9167 26.4465 38.741 28.0756C39.5653 29.7048 39.9965 31.5043 40.0002 33.3301V43.3302C40.0002 43.7722 39.8246 44.1962 39.5121 44.5087C39.1995 44.8213 38.7756 44.9969 38.3336 44.9969H5.00003C4.558 44.9969 4.13407 44.8213 3.82151 44.5087C3.50895 44.1962 3.33335 43.7722 3.33335 43.3302V33.3301C3.33707 31.5043 3.76833 29.7048 4.59261 28.0756C5.41689 26.4465 6.61126 25.033 8.08005 23.9484C9.78987 25.858 11.8844 27.3842 14.2261 28.4267C16.5678 29.4691 19.1036 30.0042 21.6668 29.9968Z" fill="white"/>
<path d="M41.6638 88.3325C41.6674 91.4256 42.8977 94.3911 45.0849 96.5783C47.272 98.7654 50.2375 99.9957 53.3306 99.9993H78.3307C81.4238 99.9957 84.3893 98.7654 86.5765 96.5783C88.7636 94.3911 89.9939 91.4256 89.9975 88.3325V63.3324C89.9939 60.2393 88.7636 57.2738 86.5765 55.0867C84.3893 52.8995 81.4238 51.6692 78.3307 51.6656H53.3306C50.2375 51.6692 47.272 52.8995 45.0849 55.0867C42.8977 57.2738 41.6674 60.2393 41.6638 63.3324V88.3325ZM86.6641 88.3325C86.6615 90.5419 85.7826 92.66 84.2204 94.2222C82.6581 95.7844 80.5401 96.6633 78.3307 96.6659H53.3306C51.1212 96.6633 49.0032 95.7844 47.4409 94.2222C45.8787 92.66 44.9998 90.5419 44.9972 88.3325V68.3324H86.6641V88.3325ZM44.9972 63.3324C44.9998 61.123 45.8787 59.005 47.4409 57.4427C49.0032 55.8805 51.1212 55.0016 53.3306 54.999H78.3307C80.5401 55.0016 82.6581 55.8805 84.2204 57.4427C85.7826 59.005 86.6615 61.123 86.6641 63.3324V64.9991H44.9972V63.3324Z" fill="white"/>
<path d="M52.8494 58.8163C52.6158 58.5846 52.3188 58.4272 51.9959 58.364C51.6729 58.3008 51.3385 58.3346 51.0348 58.4611C50.731 58.5877 50.4715 58.8013 50.289 59.0751C50.1065 59.3489 50.009 59.6706 50.009 59.9996C50.009 60.3287 50.1065 60.6504 50.289 60.9242C50.4715 61.1979 50.731 61.4116 51.0348 61.5381C51.3385 61.6647 51.6729 61.6985 51.9959 61.6353C52.3188 61.5721 52.6158 61.4147 52.8494 61.183C53.0001 61.0236 53.1189 60.8369 53.1994 60.633C53.2874 60.4334 53.3328 60.2177 53.3328 59.9996C53.3328 59.7815 53.2874 59.5658 53.1994 59.3663C53.1229 59.1603 53.0036 58.9728 52.8494 58.8163Z" fill="white"/>
<path d="M57.9979 58.3629C57.8935 58.3811 57.7924 58.4148 57.6979 58.4629C57.5913 58.4997 57.4899 58.5501 57.3963 58.6129C57.3098 58.6749 57.2269 58.7417 57.1479 58.8129C56.8381 59.1289 56.6645 59.5537 56.6645 59.9963C56.6645 60.4388 56.8381 60.8637 57.1479 61.1796L57.3963 61.3796C57.4899 61.4425 57.5913 61.4929 57.6979 61.5296C57.7924 61.5778 57.8935 61.6115 57.9979 61.6296C58.1082 61.6482 58.2195 61.6594 58.3313 61.663C58.6623 61.6649 58.9864 61.5682 59.2623 61.3852C59.5382 61.2022 59.7533 60.9412 59.8802 60.6354C60.0072 60.3297 60.0402 59.9931 59.9751 59.6685C59.91 59.3439 59.7497 59.0461 59.5146 58.8129C59.3158 58.6227 59.0745 58.4827 58.8107 58.4044C58.5469 58.3261 58.2683 58.3119 57.9979 58.3629Z" fill="white"/>
<path d="M64.3652 58.4633C64.1612 58.5438 63.9745 58.6626 63.8152 58.8133C63.5053 59.1292 63.3318 59.5541 63.3318 59.9966C63.3318 60.4391 63.5053 60.864 63.8152 61.1799C63.9745 61.3306 64.1612 61.4494 64.3652 61.5299C64.5656 61.6153 64.7807 61.6606 64.9985 61.6633C65.3296 61.6652 65.6537 61.5685 65.9296 61.3855C66.2054 61.2025 66.4206 60.9415 66.5475 60.6357C66.6745 60.33 66.7075 59.9934 66.6424 59.6688C66.5772 59.3442 66.4169 59.0464 66.1819 58.8133C65.9475 58.582 65.6499 58.4253 65.3266 58.363C65.0033 58.3008 64.6687 58.3356 64.3652 58.4633Z" fill="white"/>
<path d="M67.278 41.4472L73.3331 46.6639L78.5498 40.6089L78.1948 35.8305L74.3331 40.3022C72.8624 33.1634 68.9767 26.7494 63.3302 22.1403C57.6838 17.5311 50.6216 15.0085 43.3329 14.9971V18.3304C49.6981 18.3396 55.8755 20.4887 60.8719 24.4323C65.8684 28.3759 69.3937 33.8849 70.8814 40.0739L66.923 36.6639L67.278 41.4472Z" fill="white"/>
<path d="M12.7247 58.5484L6.66971 53.3317L1.45302 59.3868L1.80802 64.1651L5.66971 59.6934C7.1404 66.8323 11.0261 73.2463 16.6725 77.8554C22.319 82.4645 29.3811 84.9872 36.6699 84.9986V81.6652C30.3046 81.6561 24.1273 79.507 19.1309 75.5634C14.1344 71.6198 10.609 66.1107 9.1214 59.9218L13.0798 63.3318L12.7247 58.5484Z" fill="white"/>
</svg>
