<svg width="22" height="22" viewBox="0 0 22 22" fill="none" xmlns="http://www.w3.org/2000/svg">
<g clip-path="url(#clip0_0_3673)">
<path d="M21.4356 16.2264L18.7007 13.4915C17.9467 12.7375 16.7197 12.7375 15.9658 13.4915L14.7226 14.7347C14.1514 15.3059 13.2219 15.3057 12.6509 14.7349L7.26259 9.34198C6.69003 8.76942 6.68994 7.84271 7.26259 7.27007C7.46282 7.06983 8.03779 6.49487 8.50572 6.02694C9.25643 5.27627 9.26691 4.05316 8.50499 3.29133L5.7708 0.565728C5.01678 -0.188246 3.78989 -0.188246 3.03789 0.563751C2.47517 1.12157 2.29367 1.30153 2.04136 1.55165C-0.677706 4.27067 -0.677706 8.69487 2.04123 11.4138L10.5788 19.9558C13.3042 22.6813 17.7154 22.6815 20.441 19.9558L21.4356 18.9613C22.1896 18.2073 22.1896 16.9805 21.4356 16.2264ZM3.94754 1.47735C4.19887 1.22603 4.60776 1.22599 4.8599 1.47804L7.59409 4.20364C7.84602 4.45557 7.84602 4.8633 7.59409 5.11527L7.13824 5.57108L3.49405 1.92689L3.94754 1.47735ZM11.4906 19.0443L2.95299 10.5022C0.84932 8.39856 0.733691 5.09533 2.59738 2.85352L6.23099 6.48713C5.27623 7.56947 5.31602 9.21875 6.35075 10.2535L11.7389 15.6461C11.7389 15.6461 11.739 15.6462 11.739 15.6463C12.7727 16.6799 14.4218 16.7223 15.5055 15.7662L19.1392 19.3999C16.9045 21.2604 13.6087 21.1625 11.4906 19.0443ZM20.524 18.0497L20.0682 18.5056L16.4216 14.859L16.8774 14.4031C17.1287 14.1518 17.5377 14.1518 17.789 14.4031L20.524 17.1381C20.7753 17.3894 20.7753 17.7984 20.524 18.0497Z" fill="#474BFF"/>
</g>
<defs>
<clipPath id="clip0_0_3673">
<rect width="22" height="22" fill="white"/>
</clipPath>
</defs>
</svg>
