<svg width="100" height="100" viewBox="0 0 100 100" fill="none" xmlns="http://www.w3.org/2000/svg">
<path d="M94 0H6C4.4087 0 2.88258 0.632141 1.75736 1.75736C0.632141 2.88258 0 4.4087 0 6V40C0 41.5913 0.632141 43.1174 1.75736 44.2426C2.88258 45.3679 4.4087 46 6 46H94C95.5913 46 97.1174 45.3679 98.2426 44.2426C99.3679 43.1174 100 41.5913 100 40V6C100 4.4087 99.3679 2.88258 98.2426 1.75736C97.1174 0.632141 95.5913 0 94 0ZM4 40V6C4 5.46957 4.21071 4.96086 4.58579 4.58579C4.96086 4.21071 5.46957 4 6 4H42V42H6C5.46957 42 4.96086 41.7893 4.58579 41.4142C4.21071 41.0391 4 40.5304 4 40ZM96 40C96 40.5304 95.7893 41.0391 95.4142 41.4142C95.0391 41.7893 94.5304 42 94 42H46V4H94C94.5304 4 95.0391 4.21071 95.4142 4.58579C95.7893 4.96086 96 5.46957 96 6V40ZM33.664 15.11L21.664 33.11C21.4769 33.3904 21.2219 33.619 20.9228 33.7745C20.6236 33.93 20.29 34.0074 19.953 33.9994C19.6159 33.9914 19.2864 33.8983 18.9949 33.7289C18.7035 33.5594 18.4596 33.319 18.286 33.03L12.286 23.03C12.1451 22.8048 12.0504 22.5537 12.0076 22.2915C11.9647 22.0293 11.9746 21.7612 12.0365 21.5028C12.0984 21.2445 12.2112 21.001 12.3683 20.7868C12.5253 20.5725 12.7235 20.3916 12.9512 20.2548C13.179 20.1179 13.4317 20.0278 13.6946 19.9897C13.9575 19.9516 14.2254 19.9663 14.4826 20.0329C14.7398 20.0995 14.9812 20.2166 15.1926 20.3775C15.404 20.5384 15.5813 20.7398 15.714 20.97L20.088 28.262L30.336 12.89C30.6304 12.4487 31.088 12.1424 31.6083 12.0385C32.1285 11.9346 32.6687 12.0416 33.11 12.336C33.5513 12.6304 33.8576 13.088 33.9615 13.6083C34.0654 14.1285 33.9584 14.6687 33.664 15.11ZM88 16C88 16.5304 87.7893 17.0391 87.4142 17.4142C87.0391 17.7893 86.5304 18 86 18H56C55.4696 18 54.9609 17.7893 54.5858 17.4142C54.2107 17.0391 54 16.5304 54 16C54 15.4696 54.2107 14.9609 54.5858 14.5858C54.9609 14.2107 55.4696 14 56 14H86C86.5304 14 87.0391 14.2107 87.4142 14.5858C87.7893 14.9609 88 15.4696 88 16ZM76 30C76 30.5304 75.7893 31.0391 75.4142 31.4142C75.0391 31.7893 74.5304 32 74 32H56C55.4696 32 54.9609 31.7893 54.5858 31.4142C54.2107 31.0391 54 30.5304 54 30C54 29.4696 54.2107 28.9609 54.5858 28.5858C54.9609 28.2107 55.4696 28 56 28H74C74.5304 28 75.0391 28.2107 75.4142 28.5858C75.7893 28.9609 76 29.4696 76 30ZM94 54H6C4.4087 54 2.88258 54.6321 1.75736 55.7574C0.632141 56.8826 0 58.4087 0 60V94C0 95.5913 0.632141 97.1174 1.75736 98.2426C2.88258 99.3679 4.4087 100 6 100H94C95.5913 100 97.1174 99.3679 98.2426 98.2426C99.3679 97.1174 100 95.5913 100 94V60C100 58.4087 99.3679 56.8826 98.2426 55.7574C97.1174 54.6321 95.5913 54 94 54ZM4 94V60C4 59.4696 4.21071 58.9609 4.58579 58.5858C4.96086 58.2107 5.46957 58 6 58H42V96H6C5.46957 96 4.96086 95.7893 4.58579 95.4142C4.21071 95.0391 4 94.5304 4 94ZM96 94C96 94.5304 95.7893 95.0391 95.4142 95.4142C95.0391 95.7893 94.5304 96 94 96H46V58H94C94.5304 58 95.0391 58.2107 95.4142 58.5858C95.7893 58.9609 96 59.4696 96 60V94ZM88 70C88 70.5304 87.7893 71.0391 87.4142 71.4142C87.0391 71.7893 86.5304 72 86 72H56C55.4696 72 54.9609 71.7893 54.5858 71.4142C54.2107 71.0391 54 70.5304 54 70C54 69.4696 54.2107 68.9609 54.5858 68.5858C54.9609 68.2107 55.4696 68 56 68H86C86.5304 68 87.0391 68.2107 87.4142 68.5858C87.7893 68.9609 88 69.4696 88 70ZM76 84C76 84.5304 75.7893 85.0391 75.4142 85.4142C75.0391 85.7893 74.5304 86 74 86H56C55.4696 86 54.9609 85.7893 54.5858 85.4142C54.2107 85.0391 54 84.5304 54 84C54 83.4696 54.2107 82.9609 54.5858 82.5858C54.9609 82.2107 55.4696 82 56 82H74C74.5304 82 75.0391 82.2107 75.4142 82.5858C75.7893 82.9609 76 83.4696 76 84ZM33.414 84.586C33.7783 84.9632 33.9799 85.4684 33.9753 85.9928C33.9708 86.5172 33.7605 87.0188 33.3896 87.3896C33.0188 87.7605 32.5172 87.9708 31.9928 87.9753C31.4684 87.9799 30.9632 87.7783 30.586 87.414L23 79.828L15.414 87.414C15.2295 87.605 15.0088 87.7574 14.7648 87.8622C14.5208 87.967 14.2584 88.0222 13.9928 88.0245C13.7272 88.0268 13.4639 87.9762 13.2181 87.8756C12.9723 87.7751 12.749 87.6266 12.5612 87.4388C12.3734 87.251 12.2249 87.0277 12.1244 86.7819C12.0238 86.5361 11.9732 86.2728 11.9755 86.0072C11.9778 85.7416 12.033 85.4792 12.1378 85.2352C12.2426 84.9912 12.395 84.7705 12.586 84.586L20.172 77L12.586 69.414C12.395 69.2295 12.2426 69.0088 12.1378 68.7648C12.033 68.5208 11.9778 68.2584 11.9755 67.9928C11.9732 67.7272 12.0238 67.4639 12.1244 67.2181C12.2249 66.9723 12.3734 66.749 12.5612 66.5612C12.749 66.3734 12.9723 66.2249 13.2181 66.1244C13.4639 66.0238 13.7272 65.9732 13.9928 65.9755C14.2584 65.9778 14.5208 66.033 14.7648 66.1378C15.0088 66.2426 15.2295 66.395 15.414 66.586L23 74.172L30.586 66.586C30.9632 66.2217 31.4684 66.0201 31.9928 66.0247C32.5172 66.0292 33.0188 66.2395 33.3896 66.6104C33.7605 66.9812 33.9708 67.4828 33.9753 68.0072C33.9799 68.5316 33.7783 69.0368 33.414 69.414L25.828 77L33.414 84.586Z" fill="white"/>
</svg>
