<svg width="19" height="18" viewBox="0 0 19 18" fill="none" xmlns="http://www.w3.org/2000/svg">
<g clip-path="url(#clip0_0_2840)">
<path d="M10.6684 0.933338L12.6986 5.04698C12.8398 5.33309 13.1127 5.53133 13.4285 5.57714L17.9683 6.23684C18.7635 6.35249 19.0808 7.32946 18.5056 7.89003L15.2206 11.092C14.9923 11.3147 14.8879 11.6357 14.942 11.95L15.7174 16.4714C15.8533 17.2632 15.022 17.867 14.3108 17.4934L10.2505 15.3589C9.96817 15.2106 9.63062 15.2106 9.34827 15.3589L5.28794 17.4934C4.57681 17.8674 3.74552 17.2632 3.88144 16.4714L4.65678 11.95C4.71085 11.6357 4.60647 11.3147 4.37818 11.092L1.0932 7.89003C0.517983 7.32908 0.835255 6.35211 1.6305 6.23684L6.1703 5.57714C6.48607 5.53133 6.75903 5.33309 6.90021 5.04698L8.93037 0.933338C9.28557 0.212813 10.3128 0.212813 10.6684 0.933338Z" fill="#CFCFCF"/>
</g>
<defs>
<clipPath id="clip0_0_2840">
<rect width="18" height="18" fill="white" transform="translate(0.799316)"/>
</clipPath>
</defs>
</svg>
