<svg width="18" height="18" viewBox="0 0 18 18" fill="none" xmlns="http://www.w3.org/2000/svg">
<path d="M9.8691 0.933338L11.8993 5.04698C12.0404 5.33309 12.3134 5.53133 12.6292 5.57714L17.169 6.23684C17.9642 6.35249 18.2815 7.32946 17.7063 7.89003L14.4213 11.092C14.193 11.3147 14.0886 11.6357 14.1427 11.95L14.918 16.4714C15.054 17.2632 14.2227 17.867 13.5115 17.4934L9.45121 15.3589C9.16885 15.2106 8.83131 15.2106 8.54895 15.3589L4.48863 17.4934C3.77749 17.8674 2.9462 17.2632 3.08212 16.4714L3.85746 11.95C3.91153 11.6357 3.80715 11.3147 3.57887 11.092L0.293886 7.89003C-0.281333 7.32908 0.0359383 6.35211 0.831182 6.23684L5.37098 5.57714C5.68675 5.53133 5.95972 5.33309 6.10089 5.04698L8.13106 0.933338C8.48625 0.212813 9.51353 0.212813 9.8691 0.933338Z" fill="#FBC006"/>
</svg>
